<svg width="25" height="17" viewBox="0 0 25 17" fill="none" xmlns="http://www.w3.org/2000/svg">
<g clip-path="url(#clip0_3_17)">
<path d="M0 0H25V16.6667H0V0Z" fill="#003399"/>
<path d="M12.4985 1.84769L12.7064 2.48713H13.3821L12.8379 2.88256L13.0427 3.52269L12.4985 3.12725L11.9542 3.52269L12.1621 2.8829L11.6179 2.48747H12.2906L12.4985 1.84769ZM9.72071 2.58843L9.92858 3.22787H10.6043L10.0601 3.6233L10.265 4.26343L9.72071 3.86799L9.17645 4.26343L9.38435 3.62364L8.84013 3.22821H9.51284L9.72071 2.58843ZM7.68367 4.62546L7.89154 5.26491H8.56729L8.02306 5.66034L8.22793 6.30046L7.68367 5.90503L7.13942 6.30046L7.34732 5.66068L6.80309 5.26525H7.4758L7.68367 4.62546ZM6.94293 7.40321L7.1508 8.04269H7.82654L7.28232 8.43815L7.48719 9.07827L6.94293 8.68281L6.39867 9.07827L6.60658 8.43843L6.06235 8.04302H6.73506L6.94293 7.40321ZM7.68367 10.181L7.89154 10.8205H8.56729L8.02306 11.2159L8.22793 11.856L7.68367 11.4606L7.13942 11.856L7.34732 11.2162L6.80309 10.8208H7.4758L7.68367 10.181ZM9.72071 12.2181L9.92858 12.8575H10.6043L10.0601 13.2529L10.265 13.8931L9.72071 13.4977L9.17645 13.8931L9.38435 13.2533L8.84013 12.8578H9.51284L9.72071 12.2181ZM15.2763 2.58843L15.4841 3.22787H16.1599L15.6156 3.6233L15.8205 4.26343L15.2763 3.86799L14.732 4.26343L14.9399 3.62364L14.3957 3.22821H15.0684L15.2763 2.58843ZM17.3133 4.62546L17.5212 5.26491H18.1969L17.6527 5.66034L17.8575 6.30046L17.3133 5.90503L16.769 6.30046L16.9769 5.66068L16.4327 5.26525H17.1054L17.3133 4.62546ZM18.054 7.40324L18.2619 8.04269H18.9377L18.3934 8.43815L18.5983 9.07827L18.054 8.68281L17.5098 9.07827L17.7177 8.43843L17.1735 8.04302H17.8462L18.054 7.40324ZM17.3133 10.181L17.5212 10.8205H18.1969L17.6527 11.2159L17.8576 11.856L17.3133 11.4606L16.769 11.856L16.9769 11.2162L16.4327 10.8208H17.1054L17.3133 10.181ZM12.4985 12.9588L12.7064 13.5983H13.3821L12.8379 13.9937L13.0427 14.6338L12.4985 14.2384L11.9542 14.6338L12.1621 13.994L11.6179 13.5986H12.2906L12.4985 12.9588ZM15.2763 12.218L15.4841 12.8575H16.1599L15.6156 13.2529L15.8206 13.8931L15.2763 13.4976L14.732 13.8931L14.9399 13.2532L14.3957 12.8578H15.0684L15.2763 12.218Z" fill="#FFCC00"/>
</g>
<defs>
<clipPath id="clip0_3_17">
<rect width="25" height="16.6667" fill="white"/>
</clipPath>
</defs>
</svg>
