<svg width="25" height="16" viewBox="0 0 25 16" fill="none" xmlns="http://www.w3.org/2000/svg">
<path d="M0 0H25V16H0V0Z" fill="white"/>
<path d="M0 0H25V1.23041H0V0ZM0 2.46082H25V3.69123H0V2.46082ZM0 4.92164H25V6.15205H0V4.92164ZM0 7.38246H25V8.61287H0V7.38246ZM0 9.84795H25V11.0784H0V9.84795ZM0 12.3088H25V13.5392H0V12.3088ZM0 14.7696H25V16H0V14.7696Z" fill="#D80027"/>
<path d="M0 0H12.5V8.61287H0V0Z" fill="#2E52B2"/>
<path d="M2.32943 6.49824L2.13449 5.89941L1.92007 6.49824H1.27679L1.79824 6.85847L1.60331 7.4573L2.13449 7.08771L2.65106 7.4573L2.45126 6.85847L2.98245 6.49824H2.32943ZM5.07309 6.49824L4.87329 5.89941L4.66861 6.49824H4.02533L4.54678 6.85847L4.35184 7.4573L4.87329 7.08771L5.3996 7.4573L5.20467 6.85847L5.72611 6.49824H5.07309ZM7.8265 6.49824L7.61695 5.89941L7.42202 6.49824H6.76412L7.30019 6.85847L7.09551 7.4573L7.61695 7.08771L8.15301 7.4573L7.94833 6.85847L8.46978 6.49824H7.8265ZM10.5653 6.49824L10.3704 5.89941L10.1657 6.49824H9.51754L10.0439 6.85847L9.84892 7.4573L10.3704 7.08771L10.8967 7.4573L10.6871 6.85847L11.2232 6.49824H10.5653ZM4.87329 3.5228L4.66861 4.12163H4.02533L4.54678 4.49122L4.35184 5.08069L4.87329 4.71578L5.3996 5.08069L5.20467 4.49122L5.72611 4.12163H5.07309L4.87329 3.5228ZM2.13449 3.5228L1.92007 4.12163H1.27679L1.79824 4.49122L1.60331 5.08069L2.13449 4.71578L2.65106 5.08069L2.45126 4.49122L2.98245 4.12163H2.32943L2.13449 3.5228ZM7.61695 3.5228L7.42202 4.12163H6.76412L7.30019 4.49122L7.09551 5.08069L7.61695 4.71578L8.15301 5.08069L7.94833 4.49122L8.46978 4.12163H7.8265L7.61695 3.5228ZM10.3704 3.5228L10.1657 4.12163H9.51754L10.0439 4.49122L9.84892 5.08069L10.3704 4.71578L10.8967 5.08069L10.6871 4.49122L11.2232 4.12163H10.5653L10.3704 3.5228ZM2.13449 1.15555L1.92007 1.74502H1.27679L1.79824 2.11461L1.60331 2.70876L2.13449 2.33917L2.65106 2.70876L2.45126 2.11461L2.98245 1.74502H2.32943L2.13449 1.15555ZM4.87329 1.15555L4.66861 1.74502H4.02533L4.54678 2.11461L4.35184 2.70876L4.87329 2.33917L5.3996 2.70876L5.20467 2.11461L5.72611 1.74502H5.07309L4.87329 1.15555ZM7.61695 1.15555L7.42202 1.74502H6.76412L7.30019 2.11461L7.09551 2.70876L7.61695 2.33917L8.15301 2.70876L7.94833 2.11461L8.46978 1.74502H7.8265L7.61695 1.15555ZM10.3704 1.15555L10.1657 1.74502H9.51754L10.0439 2.11461L9.84892 2.70876L10.3704 2.33917L10.8967 2.70876L10.6871 2.11461L11.2232 1.74502H10.5653L10.3704 1.15555Z" fill="white"/>
</svg>
